<mxfile host="app.diagrams.net" modified="2023-12-12T22:47:18.187Z" agent="Mozilla/5.0 (X11; Linux x86_64) AppleWebKit/537.36 (KHTML, like Gecko) Chrome/120.0.0.0 Safari/537.36" etag="rdA6mhkN5gH4arePS6L5" version="22.1.8" type="device">
  <diagram name="Page-1" id="R4b502yh_jZteNn4wol2">
    <mxGraphModel dx="1024" dy="556" grid="1" gridSize="10" guides="1" tooltips="1" connect="1" arrows="1" fold="1" page="1" pageScale="1" pageWidth="850" pageHeight="1100" math="0" shadow="0">
      <root>
        <mxCell id="0" />
        <mxCell id="1" parent="0" />
        <mxCell id="1PONoHMlrcOPd9DlMgOz-1" value="User requests a revocation" style="rounded=1;whiteSpace=wrap;html=1;" vertex="1" parent="1">
          <mxGeometry x="360" y="60" width="120" height="60" as="geometry" />
        </mxCell>
      </root>
    </mxGraphModel>
  </diagram>
</mxfile>
